<svg width="190" height="36" fill="none" xmlns="http://www.w3.org/2000/svg"><path d="M59.592 16.688v-4.224h2.232c1.632 0 2.328.816 2.328 2.112 0 1.296-.696 2.112-2.328 2.112h-2.232zm8.736-2.112c0-3.096-2.064-5.424-6.192-5.424h-6.648V26h4.104v-6.048h2.544c4.296 0 6.192-2.592 6.192-5.376zm1.42 4.704c0 4.224 2.617 6.912 5.88 6.912 1.993 0 3.409-.912 4.153-2.088V26h4.104V12.608H79.78v1.896c-.72-1.176-2.136-2.088-4.128-2.088-3.288 0-5.904 2.64-5.904 6.864zm10.033.024c0 2.136-1.368 3.312-2.928 3.312-1.536 0-2.928-1.2-2.928-3.336s1.392-3.288 2.928-3.288c1.56 0 2.928 1.176 2.928 3.312zm13.34 1.68l-3.095-8.376h-4.584l5.448 12.936-3.072 6.816h4.416l8.4-19.752h-4.44l-3.072 8.376zm22.201-1.68c0-4.248-3.024-6.888-6.96-6.888-3.912 0-6.96 2.64-6.96 6.888 0 4.248 2.976 6.888 6.912 6.888s7.008-2.64 7.008-6.888zm-9.744 0c0-2.28 1.296-3.336 2.784-3.336 1.44 0 2.784 1.056 2.784 3.336 0 2.256-1.368 3.336-2.832 3.336-1.488 0-2.736-1.08-2.736-3.336zM136.055 26h4.08v-7.824c0-3.6-2.136-5.712-5.448-5.712-1.944 0-3.624 1.08-4.512 2.496-.912-1.608-2.544-2.496-4.56-2.496-1.752 0-3.12.744-3.912 1.824v-1.68h-4.104V26h4.104v-7.272c0-1.752 1.008-2.712 2.568-2.712s2.568.96 2.568 2.712V26h4.08v-7.272c0-1.752 1.008-2.712 2.568-2.712s2.568.96 2.568 2.712V26zm6.234-6.72c0 4.224 2.616 6.912 5.88 6.912 1.992 0 3.408-.912 4.152-2.088V26h4.104V12.608h-4.104v1.896c-.72-1.176-2.136-2.088-4.128-2.088-3.288 0-5.904 2.64-5.904 6.864zm10.032.024c0 2.136-1.368 3.312-2.928 3.312-1.536 0-2.928-1.2-2.928-3.336s1.392-3.288 2.928-3.288c1.56 0 2.928 1.176 2.928 3.312zm7.821 2.04c0 3.48 1.944 4.656 4.728 4.656h2.088v-3.48h-1.464c-.912 0-1.248-.336-1.248-1.128v-5.376h2.688v-3.408h-2.688V9.344h-4.104v3.264h-1.632v3.408h1.632v5.328zM169.344 26h4.104V12.608h-4.104V26zm2.064-14.784c1.44 0 2.424-.984 2.424-2.208 0-1.248-.984-2.232-2.424-2.232-1.464 0-2.448.984-2.448 2.232 0 1.224.984 2.208 2.448 2.208zm4.298 8.088c0 4.248 2.784 6.888 6.72 6.888 3.36 0 5.736-1.944 6.432-5.04h-4.368c-.36.984-1.008 1.536-2.136 1.536-1.464 0-2.472-1.152-2.472-3.384s1.008-3.384 2.472-3.384c1.128 0 1.8.6 2.136 1.536h4.368c-.696-3.192-3.072-5.04-6.432-5.04-3.936 0-6.72 2.664-6.72 6.888z" fill="#122432"/><path d="M41.415 7.93a9.938 9.938 0 00-13.137-.808 9.952 9.952 0 00-12.208-.003A9.936 9.936 0 002.905 21.957l6.11 6.11.014.014.01.01.02.018c.097.096.195.19.295.281l.156.14.128.109a9.94 9.94 0 0012.531.26 9.938 9.938 0 0013.138-.809l6.108-6.109a9.946 9.946 0 000-14.05zm-19.242-.314a7.34 7.34 0 015.192 12.533l-5.192 5.192-5.193-5.192a7.34 7.34 0 015.192-12.533zM8.72 21.066a7.295 7.295 0 012.15-5.193l1.383-1.382a9.912 9.912 0 002.894 7.49l5.086 5.087A7.316 7.316 0 018.72 21.065zm-3.982-.942a7.342 7.342 0 019.415-11.199L9.037 14.04a9.87 9.87 0 00-2.899 7.486l-1.401-1.402zm23.544 8.284a7.288 7.288 0 01-4.195-1.316l5.111-5.11a9.91 9.91 0 002.895-7.491l1.382 1.382a7.342 7.342 0 01-5.193 12.535zm11.3-8.26l-1.376 1.378a9.871 9.871 0 00-2.9-7.486l-5.11-5.111a7.343 7.343 0 019.387 11.22z" fill="#54B9AB"/></svg>